<?xml version="1.0" encoding="UTF-8"?>
<svg xmlns="http://www.w3.org/2000/svg" xmlns:xlink="http://www.w3.org/1999/xlink">
<defs>

<symbol id="corporate/palette" viewBox="0 0 24 24">
  <path d="M1325 2389 c-38 -4 -110 -20 -160 -34 -240 -70 -433 -191 -623 -390 -411 -430 -551 -889 -392 -1276 60 -144 165 -276 302 -380 199 -150 361 -184 513 -110 123 61 211 188 295 426 54 152 78 198 130 258 77 87 162 114 248 77 119 -51 174 -179 122 -284 -11 -23 -72 -108 -136 -191 -64 -82 -125 -167 -136 -188 -42 -84 -6 -106 135 -82 164 28 268 86 452 253 168 152 246 250 314 392 69 143 84 219 84 410 0 153 -2 174 -31 283 -35 134 -104 287 -182 402 -61 90 -182 221 -255 275 -184 136 -415 190 -680 159z m358 -134 c190 -55 315 -147 456 -335 145 -194 224 -425 224 -655 0 -185 -41 -331 -133 -468 -62 -93 -286 -312 -385 -376 -68 -45 -182 -97 -191 -88 -2 2 35 55 82 118 110 149 155 238 156 310 1 104 -48 196 -140 264 -60 45 -169 80 -220 71 -157 -28 -294 -192 -372 -446 -82 -269 -184 -372 -366 -374 -75 -1 -86 2 -165 41 -183 92 -330 258 -402 456 -25 68 -31 102 -35 201 -5 138 7 222 50 346 95 270 332 581 571 751 143 102 337 181 516 209 94 15 255 4 354 -25z"/><path d="M1223 2150 c-184 -37 -234 -230 -86 -333 76 -52 202 -26 284 59 28 29 33 43 37 91 4 70 -26 138 -73 164 -38 21 -108 29 -162 19z"/><path d="M1755 1974 c-70 -36 -95 -82 -95 -173 0 -53 4 -64 32 -96 58 -67 182 -108 253 -85 44 14 102 82 116 133 36 134 -178 288 -306 221z"/><path d="M702 1820 c-54 -28 -120 -102 -128 -145 -13 -70 49 -195 111 -221 69 -29 174 -5 223 50 75 86 61 242 -29 308 -40 30 -125 34 -177 8z"/><path d="M1955 1401 c-45 -20 -92 -70 -101 -107 -11 -42 6 -111 36 -153 53 -72 170 -123 235 -101 70 23 136 137 120 208 -9 42 -57 106 -107 142 -49 36 -119 40 -183 11z"/><path d="M396 1266 c-59 -22 -88 -47 -113 -96 -31 -60 -29 -106 6 -162 33 -52 76 -85 120 -94 69 -14 204 47 242 110 39 63 13 193 -46 232 -36 23 -157 29 -209 10z"/><path d="M708 806 c-96 -26 -156 -101 -144 -180 15 -92 82 -159 191 -191 57 -18 101 -6 142 37 84 87 82 179 -6 271 -61 65 -110 82 -183 63z"/>
</symbol>
  
<symbol id="modern/globe" viewBox="0 0 24 24">
    <path fill="currentColor" d="M12 2C6.48 2 2 6.48 2 12s4.48 10 10 10 10-4.48 10-10S17.52 2 12 2zm-1 19.93v-1.99c-3.94-.49-7-3.86-7-7.93 0-.62.08-1.22.21-1.79L9 15v1c0 1.1.9 2 2 2v1.93zm6.9-2.54c-.26-.81-1-1.39-1.9-1.39h-1v-3c0-.55-.45-1-1-1H8v-2h2c.55 0 1-.45 1-1V7h2c1.1 0 2-.9 2-2v-.41c2.93 1.19 5 4.06 5 7.41 0 2.08-.8 3.97-2.1 5.39z"/>
</symbol>
</defs>
</svg>