<?xml version="1.0" encoding="UTF-8"?>
<svg xmlns="http://www.w3.org/2000/svg" xmlns:xlink="http://www.w3.org/1999/xlink">
<defs>

<symbol id="corporate/palette" viewBox="0 0 24 24">
  <path d="M9 8.5C9.27614 8.5 9.5 8.27614 9.5 8V5.5H19.5V18.5H4.5V8.5H9Z" fill="#E7CA62" stroke="black" stroke-linejoin="round"/>
  <path d="M15 12V16M13 14H17" stroke="black" stroke-linecap="round"/>
</symbol>
  
<symbol id="modern/globe" viewBox="0 0 24 24">
    <path fill="currentColor" d="M12 2C6.48 2 2 6.48 2 12s4.48 10 10 10 10-4.48 10-10S17.52 2 12 2zm-1 19.93v-1.99c-3.94-.49-7-3.86-7-7.93 0-.62.08-1.22.21-1.79L9 15v1c0 1.1.9 2 2 2v1.93zm6.9-2.54c-.26-.81-1-1.39-1.9-1.39h-1v-3c0-.55-.45-1-1-1H8v-2h2c.55 0 1-.45 1-1V7h2c1.1 0 2-.9 2-2v-.41c2.93 1.19 5 4.06 5 7.41 0 2.08-.8 3.97-2.1 5.39z"/>
</symbol>
</defs>
</svg>



