<svg xmlns="http://www.w3.org/2000/svg" xmlns:xlink="http://www.w3.org/1999/xlink">
<defs>

<symbol id="corporate/palette" viewBox="0 0 24 24">
  <path fill="currentColor" d="M7.42,15.54a1,1,0,0,0,0,1.41,1,1,0,0,0,1.42,0,1,1,0,0,0,0-1.41A1,1,0,0,0,7.42,15.54Zm0-8.49a1,1,0,0,0,0,1.41,1,1,0,0,0,1.42,0,1,1,0,0,0,0-1.41A1,1,0,0,0,7.42,7.05Zm4.95,10a1,1,0,1,0,1,1A1,1,0,0,0,12.37,17Zm-6-6a1,1,0,1,0,1,1A1,1,0,0,0,6.37,11Zm6-6a1,1,0,1,0,1,1A1,1,0,0,0,12.37,5Zm3.54,2.05a1,1,0,1,0,1.41,0A1,1,0,0,0,15.91,7.05Zm6.3,0a11,11,0,1,0-7.85,15.74,3.87,3.87,0,0,0,2.5-1.65A4.2,4.2,0,0,0,17.47,18a5.65,5.65,0,0,1-.1-1,5,5,0,0,1,3-4.56,3.84,3.84,0,0,0,2.06-2.25A4,4,0,0,0,22.21,7.08Zm-1.7,2.44a1.9,1.9,0,0,1-1,1.09A7,7,0,0,0,15.37,17a7.3,7.3,0,0,0,.14,1.4,2.16,2.16,0,0,1-.31,1.65,1.79,1.79,0,0,1-1.21.8,8.72,8.72,0,0,1-1.62.15,9,9,0,0,1-9-9.28A9.05,9.05,0,0,1,11.85,3h.51a9,9,0,0,1,8.06,5A2,2,0,0,1,20.51,9.52ZM12.37,11a1,1,0,1,0,1,1A1,1,0,0,0,12.37,11Z"/>
</symbol>

<symbol id="corporate/mag" viewBox="0 0 23 23">
    <path d="M3.35288 8.95043C4.00437 6.17301 6.17301 4.00437 8.95043 3.35288C10.9563 2.88237 13.0437 2.88237 15.0496 3.35288C17.827 4.00437 19.9956 6.17301 20.6471 8.95044C21.1176 10.9563 21.1176 13.0437 20.6471 15.0496C19.9956 17.827 17.827 19.9956 15.0496 20.6471C13.0437 21.1176 10.9563 21.1176 8.95044 20.6471C6.17301 19.9956 4.00437 17.827 3.35288 15.0496C2.88237 13.0437 2.88237 10.9563 3.35288 8.95043Z" fill="none" stroke="currentColor" stroke-width="2"/>
	<path d="M9.25 11.75L11.25 13.75L14.75 10" stroke="currentColor" fill="none"  stroke-width="1.5" stroke-linecap="round" stroke-linejoin="round"/>
</symbol>

<symbol id="corporate/font" viewBox="0 0 23 23">
    <path d="M21 5V3H3V5H21Z" fill="currentColor"/><path d="M21 19V21H3V19H21Z" fill="currentColor"/><path clip-rule="evenodd" d="M12.0001 7.37636C11.602 7.35207 11.2112 7.56874 11.0325 7.95204L7.65154 15.2025C7.41815 15.7031 7.6347 16.2981 8.13522 16.5315C8.63577 16.7649 9.23074 16.5484 9.46417 16.0477L9.95278 14.9999H14.0473L14.5359 16.0477C14.7693 16.5484 15.3643 16.7649 15.8648 16.5315C16.3654 16.2981 16.5819 15.7031 16.3485 15.2025L12.9676 7.95204C12.7888 7.56874 12.3981 7.35207 12.0001 7.37636ZM13.1147 12.9999H10.8854L12.0001 10.6095L13.1147 12.9999Z" fill="currentColor" fill-rule="evenodd"/>
</symbol> 

<symbol id="corporate/icon" viewBox="0 0 240 240">
   <path d="M176,232a8,8,0,0,1-8,8H88a8,8,0,0,1,0-16h80A8,8,0,0,1,176,232Zm40-128a87.55,87.55,0,0,1-33.64,69.21A16.24,16.24,0,0,0,176,186v6a16,16,0,0,1-16,16H96a16,16,0,0,1-16-16v-6a16,16,0,0,0-6.23-12.66A87.59,87.59,0,0,1,40,104.5C39.74,56.83,78.26,17.15,125.88,16A88,88,0,0,1,216,104Zm-16,0a72,72,0,0,0-73.74-72c-39,.92-70.47,33.39-70.26,72.39a71.64,71.64,0,0,0,27.64,56.3h0A32,32,0,0,1,96,186v6h24V147.31L90.34,117.66a8,8,0,0,1,11.32-11.32L128,132.69l26.34-26.35a8,8,0,0,1,11.32,11.32L136,147.31V192h24v-6a32.12,32.12,0,0,1,12.47-25.35A71.65,71.65,0,0,0,200,104Z"></path>
</symbol>

<symbol id="corporate/preview" viewBox="0 0 245 245">
   <rect width="256" height="256" fill="none"/><rect x="32" y="48" width="192" height="160" rx="8" fill="none" stroke="currentColor" stroke-linecap="round" stroke-linejoin="round" stroke-width="20"/><circle cx="156" cy="100" r="12"/><path d="M147.31,164,173,138.34a8,8,0,0,1,11.31,0L224,178.06" fill="none" stroke="currentColor" stroke-linecap="round" stroke-linejoin="round" stroke-width="10"/><path d="M32,168.69l54.34-54.35a8,8,0,0,1,11.32,0L191.31,208" fill="none" stroke="currentColor" stroke-linecap="round" stroke-linejoin="round" stroke-width="10"/>
</symbol>

 
  
<symbol id="modern/globe" viewBox="0 0 24 24">
    <path fill="currentColor" d="M12 2C6.48 2 2 6.48 2 12s4.48 10 10 10 10-4.48 10-10S17.52 2 12 2zm-1 19.93v-1.99c-3.94-.49-7-3.86-7-7.93 0-.62.08-1.22.21-1.79L9 15v1c0 1.1.9 2 2 2v1.93zm6.9-2.54c-.26-.81-1-1.39-1.9-1.39h-1v-3c0-.55-.45-1-1-1H8v-2h2c.55 0 1-.45 1-1V7h2c1.1 0 2-.9 2-2v-.41c2.93 1.19 5 4.06 5 7.41 0 2.08-.8 3.97-2.1 5.39z"/>
</symbol>
</defs>
</svg>




