<?xml version="1.0" ?><svg id="Layer_1" fill="currentColor" width="130" height="130" style="enable-background:new 0 0 100 100;" version="1.1" viewBox="0 0 100 100" xml:space="preserve" xmlns="http://www.w3.org/2000/svg" xmlns:xlink="http://www.w3.org/1999/xlink"><style type="text/css">
	.st0{fill:none;}
</style><title/><g><path class="st0" d="M12.5,47.8c-0.5,0.5-0.9,0.9-1.2,1.4l0,0c-1.3,1.3-2.4,2.9-3.2,4.6c-0.2,0.4-0.3,0.9-0.4,1.4   c5.4,1.8,10.9,3.3,16.5,4.3C20,55.8,16.1,51.9,12.5,47.8z"/><path class="st0" d="M7.9,58.2c0.3,0.8,0.6,1.7,1,2.4c1.3,2.5,3.7,6.2,8.4,11.5c3.9,4.4,7.7,8.7,11.1,12.3l0,0   c2.8,3.1,5.9,5.9,9.2,8.3c0.4,0.3,0.8,0.5,1.2,0.7c-0.2-3.2-0.4-6.2-0.4-9.1c0-6.9,0.6-13.7,1.9-20.4C29.3,63.6,18.4,61.7,7.9,58.2   z"/><path class="st0" d="M64.1,44.9c7.8,0.1,18.1,0.5,30.3,1.7c0,0,0-0.1,0-0.1c-0.4-1-0.9-1.9-1.5-2.8c-1.4-2.1-3.8-4.9-7.1-8.9   c-4.8-5.8-8.6-10.6-11.8-14.6c-2.4-3.1-5-6.1-7.8-8.9c-0.9-0.8-1.8-1.6-2.9-2.2c0.7,8.6,1,17.2,1,25.8   C64.2,38.3,64.1,41.6,64.1,44.9z"/><path class="st0" d="M60.3,8.5c-0.2,0-0.5,0.1-0.7,0.1c-0.6,0.2-1.2,0.4-1.7,0.7c-2.4,1.3-4.7,2.8-6.9,4.5v0   c-0.4,0.3-0.8,0.6-1.2,0.9c3.8,4.6,7.6,9.2,11.5,13.7C61.1,21.8,60.8,15.2,60.3,8.5z"/><path class="st0" d="M63.4,47.7c-0.7,0-1.3,0-1.9,0c-2.4-0.1-4.7,0.1-7.1,0.5c-2,0.4-3.8,1.2-5.3,2.5c-1.5,1.3-2.7,2.9-3.4,4.7   c-1.1,2.7-1.9,5.5-2.3,8.3c-1.3,6.8-2,13.7-1.9,20.6c0,3.2,0.1,6.6,0.4,10.2c0.1,0,0.3,0.1,0.4,0.1c0.4,0,0.7,0,1,0   c0.8,0,1.5-0.1,2.2-0.4c1.4-0.6,2.7-1.3,3.9-2.2c3.5-2.4,8.9-6.9,18.3-15c6.5-5.6,12.8-11.5,19.5-16.9c2.2-1.7,4.2-3.7,5.9-5.9   c1-1.4,1.6-3,1.7-4.6c-0.1,0-0.2,0-0.3,0C81.8,48.2,71.3,47.8,63.4,47.7z"/><path class="st0" d="M47.2,48.6c1.9-1.6,4.1-2.6,6.5-3.1c2.4-0.5,4.9-0.7,7.4-0.6c0.1-3.3,0.1-6.5,0.1-9.8c0-0.7,0-1.4,0-2.2   c0,0-0.1-0.1-0.1-0.1l0,0c-6.6-7.6-13.1-15.4-19.5-23.2c-0.8-1-1.7-2-2.7-2.9c-0.8-0.7-1.8-1.2-2.8-1.3l-0.2,0   c-1,0-1.9,0.4-2.7,0.9c-1,0.7-2,1.4-2.8,2.2L8.8,27.7c-0.9,0.8-1.8,1.7-2.5,2.7c-0.6,0.8-1,1.7-1,2.7c0,0.2,0,0.5,0.1,0.7   c0.3,0.8,0.7,1.6,1.3,2.3c6.6,8.9,14.3,17,22.8,24.1c0.1,0.1,0.1,0.1,0.2,0.2l0.1-0.1c3.7,0.5,7.4,0.7,11.2,0.8   c0.5-2.3,1.2-4.6,2.1-6.7C43.9,52.1,45.4,50.1,47.2,48.6z M18.6,34C18.6,34,18.6,34,18.6,34c-0.6,0.5-1.5,0.4-2-0.3   c-0.5-0.6-0.4-1.5,0.3-2c6-4.6,11.7-9.5,17.1-14.7c0.6-0.6,1.5-0.5,2,0c0.6,0.6,0.5,1.5,0,2C30.5,24.4,24.7,29.3,18.6,34z    M24.7,42.4c-0.6,0.5-1.4,0.5-1.9,0c-0.6-0.5-0.6-1.5-0.1-2c5.8-5.6,11.9-11,18.2-16c0.6-0.5,1.5-0.4,2,0.2c0.5,0.6,0.4,1.5-0.2,2   C36.5,31.5,30.5,36.8,24.7,42.4z M32.1,49.8c-0.6,0.5-1.5,0.4-2-0.2c-0.5-0.6-0.4-1.5,0.2-2c5.8-5,11.5-10.2,16.9-15.6h0   c0,0,0,0,0,0c0.6-0.5,1.5-0.5,2,0c0.5,0.6,0.5,1.5,0,2C43.6,39.5,38,44.8,32.1,49.8z"/><path d="M97,45.5c-0.8-1.9-1.9-3.6-3.2-5.2c-1.5-1.9-3.4-4.2-5.9-7.3c-7.3-8.8-12.4-15.4-16.4-20c-1.6-1.9-3.4-3.7-5.4-5.3   c-0.8-0.6-1.6-1.1-2.5-1.5c-0.8-0.4-1.7-0.6-2.5-0.6c-0.1,0-0.2,0-0.3,0c-0.7,0-1.3,0.1-2,0.3c-1.3,0.4-2.5,1-3.7,1.7   c-1.5,0.9-3.4,2.1-5.9,3.9c-0.5,0.3-0.9,0.7-1.4,1c-1.3-1.6-2.7-3.2-4-4.8c-0.9-1.2-2-2.3-3.1-3.3c-1.2-1.1-2.8-1.8-4.4-1.9   c-0.1,0-0.3,0-0.4,0c-1.5,0-3,0.5-4.2,1.3c-1.2,0.7-2.3,1.6-3.3,2.5L6.9,25.6c-1.1,1-2.1,2-3,3.2c-1,1.3-1.5,2.8-1.6,4.4   c0,0.5,0.1,0.9,0.2,1.4c0.4,1.2,1,2.4,1.8,3.3c2,2.7,4.1,5.3,6.3,7.8c-1.3,1.4-2.3,2.6-3.2,3.6c-0.8,1-1.5,2.2-2.1,3.4   c-0.4,1.1-0.6,2.2-0.7,3.3c0,0.1,0,0.2,0,0.3c0,0.7,0.1,1.5,0.3,2.2c0.7,2.8,3,7.4,10.2,15.6c5.2,5.9,10.1,11.5,14.6,15.8   c2,1.9,4.1,3.7,6.3,5.3c1.7,1.3,3.8,2.1,5.9,2.3c0.4,0,0.8,0,1.2,0c1.1,0,2.2-0.2,3.3-0.6c1.8-0.7,4-2.1,7.6-4.8   c3.5-2.7,8.4-6.8,15.4-12.9C76,73.5,82.3,67.7,89,62.3c2.5-1.9,4.7-4.1,6.5-6.5c1.2-1.8,2-3.8,2.2-6c0-0.3,0-0.6,0-0.9   C97.6,47.7,97.4,46.6,97,45.5z M66.1,11.4c2.8,2.8,5.4,5.7,7.8,8.9c3.2,3.9,7,8.8,11.8,14.6c3.3,4,5.7,6.8,7.1,8.9   c0.6,0.9,1.1,1.8,1.5,2.8c0,0,0,0.1,0,0.1c-12.2-1.2-22.5-1.6-30.3-1.7c0.1-3.3,0.1-6.5,0.1-9.8c0-8.6-0.3-17.2-1-25.8   C64.3,9.8,65.2,10.6,66.1,11.4z M51,13.9L51,13.9c2.2-1.6,4.5-3.2,6.9-4.5c0.5-0.3,1.1-0.5,1.7-0.7c0.2-0.1,0.5-0.1,0.7-0.1   c0.5,6.6,0.8,13.2,1,19.9c-3.9-4.5-7.7-9.1-11.5-13.7C50.1,14.4,50.6,14.2,51,13.9z M8,53.8c0.8-1.7,1.9-3.3,3.2-4.6l0,0   c0.4-0.4,0.8-0.9,1.2-1.4c3.6,4.1,7.5,7.9,11.6,11.6c-5.6-1-11.1-2.4-16.5-4.3C7.7,54.7,7.8,54.2,8,53.8z M38.9,93.4   c-0.4-0.2-0.8-0.4-1.2-0.7c-3.4-2.4-6.5-5.2-9.2-8.3l0,0c-3.4-3.6-7.1-7.9-11.1-12.3c-4.7-5.3-7.2-9-8.4-11.5   c-0.4-0.8-0.8-1.6-1-2.4c10.5,3.5,21.4,5.4,32.5,5.7c-1.3,6.7-1.9,13.6-1.9,20.4C38.5,87.2,38.6,90.3,38.9,93.4z M29.8,60.2   l-0.1,0.1c0-0.1-0.1-0.1-0.2-0.2C20.9,53.1,13.3,45,6.6,36.1c-0.6-0.7-1-1.5-1.3-2.3c-0.1-0.2-0.1-0.5-0.1-0.7c0.1-1,0.4-1.9,1-2.7   c0.7-1,1.6-1.9,2.5-2.7L30.3,8.5c0.9-0.8,1.8-1.6,2.8-2.2c0.8-0.5,1.8-0.9,2.7-0.9l0.2,0c1,0.1,2,0.6,2.8,1.3   c1,0.9,1.9,1.8,2.7,2.9c6.4,7.8,12.9,15.6,19.5,23.2l0,0c0,0,0.1,0.1,0.1,0.1c0,0.7,0,1.4,0,2.2c0,3.3,0,6.5-0.1,9.8   c-2.5-0.1-5,0.1-7.4,0.6c-2.4,0.5-4.6,1.6-6.5,3.1c-1.9,1.6-3.3,3.5-4.2,5.8c-0.9,2.2-1.6,4.4-2.1,6.7C37.2,61,33.5,60.7,29.8,60.2   z M93.1,54.1c-1.7,2.2-3.7,4.2-5.9,5.9C80.4,65.5,74.1,71.4,67.6,77c-9.4,8.1-14.9,12.6-18.3,15c-1.2,0.9-2.5,1.6-3.9,2.2   c-0.7,0.3-1.5,0.4-2.2,0.4c-0.3,0-0.6,0-1,0c-0.1,0-0.3,0-0.4-0.1c-0.3-3.6-0.4-7-0.4-10.2c0-6.9,0.6-13.8,1.9-20.6   c0.5-2.8,1.3-5.6,2.3-8.3c0.7-1.8,1.9-3.4,3.4-4.7c1.5-1.3,3.4-2.1,5.3-2.5c2.3-0.4,4.7-0.6,7.1-0.5c0.6,0,1.3,0,1.9,0   c7.9,0.1,18.4,0.5,31,1.8c0.1,0,0.2,0,0.3,0C94.6,51.2,94,52.8,93.1,54.1z"/><path d="M36,17c-0.6-0.6-1.5-0.6-2,0c-5.4,5.2-11.1,10.2-17.1,14.7c-0.6,0.5-0.8,1.4-0.3,2c0.5,0.6,1.4,0.8,2,0.3c0,0,0,0,0,0   c6.1-4.7,11.9-9.6,17.4-15C36.6,18.5,36.6,17.6,36,17z"/><path d="M43,24.5c-0.5-0.6-1.4-0.7-2-0.2c-6.3,5.1-12.4,10.4-18.2,16c-0.5,0.6-0.5,1.5,0.1,2c0.5,0.5,1.4,0.5,1.9,0   c5.8-5.6,11.8-10.9,18-15.9C43.4,26,43.5,25.1,43,24.5z"/><path d="M49.2,32.1c-0.5-0.6-1.5-0.6-2,0c0,0,0,0,0,0h0C41.7,37.4,36,42.6,30.2,47.6c-0.6,0.5-0.7,1.4-0.2,2c0.5,0.6,1.4,0.7,2,0.2   c5.9-5,11.6-10.3,17.1-15.7C49.7,33.6,49.8,32.7,49.2,32.1z"/></g></svg>