<svg xmlns="http://www.w3.org/2000/svg" xmlns:xlink="http://www.w3.org/1999/xlink" version="1.1" x="0px" y="0px" viewBox="0 0 100 125" enable-background="new 0 0 100 100" xml:space="preserve"><path d="M45.8,28.5c-0.2,0-0.5,0.1-0.6,0.2c-0.2,0.1-1.1,1-2.1,2l-1.8,1.8l0-0.2c0-0.1-0.1-0.5-0.1-0.8c-0.1-1-0.5-1.6-1-1.5  c-0.4,0.1-1.7,1.4-5,5.2l-0.9,1l-0.7,0.3c-2.1,0.9-4.1,2.1-5.7,3.3c-1,0.8-2.8,2.5-3.4,3.3c-0.3,0.3-1,1.3-1.5,2.1  c-0.6,0.8-1.1,1.5-1.1,1.5c0,0-1.2,0.2-2.5,0.3c-5.6,0.7-6.1,0.8-6.4,1.4c-0.2,0.3-0.1,0.8,0.2,1.2c0.2,0.3,1.4,1.5,4.1,4  c0.8,0.8,1.5,1.4,1.5,1.5c0,0,0,0.6-0.1,1.3c-0.1,1.1-0.2,1.6-0.2,3.4c0,2.3,0.1,3.1,0.4,4.9c0.6,3.1,1.9,6.8,3.4,9.4  c1,1.7,2.4,3.3,4,4.6c4.3,3.5,9.1,5.4,13.6,5.4l1.3,0l0,0.8c0,0.5,0.1,1.4,0.2,2.4l0.2,1.6l1.3,0c0.7,0,1.3,0,1.3,0  c0,0-0.1-0.8-0.2-1.8c-0.2-1.8-0.3-2.9-0.2-3c0.1,0,2.1-0.3,3-0.4c0.5,0,0.5,0,0.6,0.1c0.1,0.3,0.3,2.4,0.3,3.6l0,1.3l0.5,0.1  c0.5,0.1,1.9,0,2,0c0,0,0-1.1-0.1-2.5c-0.2-2.5-0.2-3.2-0.1-3.3c0,0,0.2-0.1,0.3-0.1s0.7-0.2,1.3-0.3c1-0.3,1.1-0.3,1.2-0.2  c0.4,0.7,0.8,1.3,1.3,1.8c1.8,1.9,4.3,3.1,6.4,3.1h0.8l0,0.2c0,0.1-0.1,0.7-0.2,1.3l-0.2,1.1l0.5,0.1c0.3,0,0.5,0.1,0.6,0  c0,0,0.1-0.7,0.3-1.4l0.2-1.3h0.8c0.8,0,0.8,0,0.8,0.2c0,0.1-0.1,0.6-0.2,1.2c-0.1,0.6-0.2,1.1-0.2,1.2c0,0.1,0,0.2,0.5,0.2  c0.3,0,0.5,0.1,0.6,0s0.2-0.7,0.3-1.5c0.2-0.8,0.3-1.5,0.3-1.5c0,0,0.3-0.1,0.7-0.2c2.5-0.6,5.1-2.1,7.3-4.3c2.4-2.4,4-5.2,4.5-7.7  c0.2-1.3-0.2-2.3-0.9-2.3c-0.4,0-0.6,0.2-1,1c-0.6,1.1-1.3,1.5-2.5,1.5c-0.7,0-1.2-0.1-1.7-0.5c-0.5-0.3-0.7-0.6-1-1.6  c-0.2-0.4-0.5-1.1-0.7-1.5l-0.4-0.8l0.6-0.8c2.7-3.3,5.5-8,6.9-11.5c1.1-2.8,1.9-5.8,2.1-8.6c0.1-1.2,0-1.9-0.2-2.6  c-0.3-1-0.8-1.6-1.2-1.6c-0.4,0-0.6,0.3-0.9,1.4c-0.5,1.7-1.1,2.7-2.1,3.7c-1.2,1.2-2.9,2.1-4.8,2.3c-1,0.1-2.4,0.1-3.3-0.2  c-1.4-0.4-3.2-1.4-4-2.4c-0.2-0.3-0.7-1.1-1.3-2.3c-1.4-2.9-2.7-4.7-4.8-6.8c-1.8-1.8-3.5-3-5.7-4.2c-0.7-0.4-1.3-0.7-1.3-0.8  c0-0.1,0.5-1,1.2-2.2c1.7-2.9,2-3.4,2-3.9c0-1-0.8-1.5-1.8-1.1c-0.2,0.1-0.8,0.5-1.4,0.8c-2.1,1.4-3.2,2.2-3.2,2.2  c0,0,0.1-0.5,0.4-1.3c0.5-1.4,0.5-1.9,0-2.4c-0.2-0.1-0.3-0.3-0.4-0.3c0,0-0.1,0-0.2,0C46.2,28.4,46,28.5,45.8,28.5z M30.7,45.7  c0.4,0.3,0.6,1.2,0.6,2.6c-0.1,1.4-0.4,2.4-1.1,3c-0.6,0.6-1.1,0.6-1.6,0c-0.4-0.4-0.5-0.9-0.5-1.8c0-1,0.1-1.7,0.5-2.6  C29.2,45.8,30.1,45.3,30.7,45.7z M64.5,65.6c-0.3,0.6-0.2,1.1,0.3,1.1c0.1,0,0.6-0.2,1.1-0.4c0.5-0.2,0.9-0.4,0.9-0.4  c0,0-0.3,0.4-0.6,0.9c-0.7,0.9-0.8,1.1-0.7,1.3c0.1,0.2,0.2,0.4,0.8,0.8c1.5,1,2.7,2.6,3.3,4.5c0.3,1,0.5,1.3,1,1.7  c0.8,0.7,1.6,1.1,2.7,1.1c1.4,0,2.4-0.5,3.3-1.6l0.2-0.2l0,0.3c-0.2,1.1-1.1,3.1-2.1,4.5c-2.2,3-4.9,5.2-7.8,6.2  c-1.5,0.5-2,0.6-4.6,0.7c-2.3,0-2.4,0-3.1-0.1c-1.2-0.3-2.3-0.9-3.5-1.9c-1.4-1.2-2.2-2.6-2.6-4.8c-0.3-1.6-0.3-3,0.1-4.7  c0.2-0.7,0.2-0.8,0.1-0.9c0-0.1-0.5-0.6-1-1.2l-0.9-1.1l1.6-0.1l1.6,0l0.9-1c1.3-1.4,2.4-2,4-2.5c0.6-0.2,0.6-0.2,1.7-1.2l1.1-0.9  l0,0.7c0,0.4,0,0.7,0,0.7c0.1,0,1.1-0.8,1.7-1.3c0.3-0.3,0.6-0.5,0.6-0.5C64.7,65.2,64.6,65.4,64.5,65.6z M57.2,70.2  c-0.7,0.3-1.3,1.6-1.1,2.5c0.2,1,1.1,1.3,1.8,0.7c0.9-0.8,1-2.7,0.3-3.1C57.9,70.1,57.5,70,57.2,70.2z M57.9,71.2  c0.4,0.7-0.4,2-0.9,1.6c-0.2-0.1-0.2-0.6-0.1-1C57,71.2,57.6,70.8,57.9,71.2z"/><text x="0" y="115" fill="#000000" font-size="5px" font-weight="bold" font-family="'Helvetica Neue', Helvetica, Arial-Unicode, Arial, Sans-serif">Created by misirlou</text><text x="0" y="120" fill="#000000" font-size="5px" font-weight="bold" font-family="'Helvetica Neue', Helvetica, Arial-Unicode, Arial, Sans-serif">from the Noun Project</text></svg>